#define ical_width 64
#define ical_height 64
static char ical_bits[] = {
   0x00, 0xff, 0xff, 0xff, 0xff, 0xff, 0x7f, 0x00, 0x00, 0xff, 0xff, 0xff,
   0xff, 0xff, 0x7f, 0x00, 0x00, 0x7f, 0x00, 0x00, 0x00, 0x80, 0x7f, 0x00,
   0x00, 0x7f, 0xb0, 0x9d, 0x12, 0x82, 0x7f, 0x00, 0x00, 0x7f, 0x50, 0x95,
   0x73, 0x82, 0x7f, 0x00, 0x00, 0x7f, 0x10, 0x3d, 0x52, 0x82, 0x7f, 0x00,
   0x00, 0x7f, 0x00, 0x00, 0x00, 0x80, 0x7f, 0x00, 0x00, 0xff, 0xff, 0xff,
   0xff, 0xff, 0x7f, 0x00, 0x00, 0xff, 0xff, 0xff, 0xff, 0xff, 0x7f, 0x00,
   0x00, 0xff, 0xff, 0xff, 0xff, 0xff, 0x7f, 0x00, 0x00, 0x07, 0x41, 0x11,
   0x04, 0x41, 0x70, 0x00, 0x00, 0x37, 0x49, 0x92, 0x55, 0x4d, 0x75, 0x00,
   0x00, 0x27, 0x59, 0xd2, 0x24, 0x4d, 0x75, 0x00, 0x00, 0x07, 0x41, 0x12,
   0x04, 0x41, 0x70, 0x00, 0x00, 0xff, 0xff, 0xff, 0xff, 0xff, 0x7f, 0x00,
   0x00, 0xaf, 0xeb, 0x1a, 0x04, 0x41, 0x70, 0x00, 0x00, 0x57, 0x55, 0x15,
   0x04, 0x41, 0x70, 0x00, 0x00, 0xaf, 0xeb, 0x1a, 0x04, 0x41, 0x70, 0x00,
   0x00, 0x57, 0x55, 0x15, 0x04, 0x41, 0x70, 0x00, 0x00, 0xff, 0xff, 0xff,
   0xff, 0xff, 0x7f, 0x00, 0x00, 0x07, 0x41, 0x10, 0x04, 0x41, 0x70, 0x00,
   0x00, 0x07, 0x41, 0x10, 0x04, 0x41, 0x70, 0x00, 0x00, 0x07, 0x41, 0x10,
   0x04, 0x41, 0x70, 0x00, 0x00, 0x07, 0x41, 0x10, 0x04, 0x41, 0x70, 0x00,
   0x00, 0xff, 0xff, 0xff, 0xff, 0xff, 0x7f, 0x00, 0x00, 0x07, 0x41, 0x10,
   0x04, 0x41, 0x70, 0x00, 0x00, 0x07, 0x41, 0x10, 0x04, 0x41, 0x70, 0x00,
   0x00, 0x07, 0x41, 0x10, 0x04, 0x41, 0x70, 0x00, 0x00, 0x07, 0x41, 0x10,
   0x04, 0x41, 0x70, 0x00, 0x00, 0xff, 0xff, 0xff, 0xff, 0xff, 0x7f, 0x00,
   0x00, 0x07, 0x41, 0x10, 0x04, 0x41, 0x70, 0x00, 0x00, 0x07, 0x41, 0x10,
   0x04, 0x41, 0x70, 0x00, 0x00, 0x07, 0x41, 0x10, 0x04, 0x41, 0x70, 0x00,
   0x00, 0x07, 0x41, 0x10, 0x04, 0x41, 0x70, 0x00, 0x00, 0xff, 0xff, 0xff,
   0xff, 0xff, 0x7f, 0x00, 0x00, 0xf7, 0x5f, 0x10, 0xfc, 0xff, 0x7a, 0x00,
   0x00, 0xf7, 0x5f, 0x10, 0xfe, 0xff, 0x77, 0x00, 0x00, 0xf7, 0x5f, 0x10,
   0x3f, 0xe0, 0x7f, 0x00, 0x00, 0x37, 0x58, 0x90, 0x07, 0x82, 0x7f, 0x00,
   0x00, 0x3f, 0xf8, 0xff, 0x03, 0x02, 0x7f, 0x00, 0x00, 0x3f, 0xf8, 0xff,
   0x00, 0x02, 0x7c, 0x00, 0x00, 0x1c, 0x70, 0xf0, 0x00, 0x02, 0x7c, 0x00,
   0x00, 0x1e, 0xf0, 0x70, 0x00, 0x07, 0x78, 0x00, 0x00, 0x1e, 0xf0, 0x70,
   0x00, 0x07, 0x78, 0x00, 0x00, 0x0e, 0xe0, 0x30, 0x00, 0x07, 0x78, 0x00,
   0x00, 0x0e, 0xe0, 0x30, 0x00, 0x07, 0x60, 0x00, 0x00, 0x0f, 0xe0, 0x31,
   0x00, 0x07, 0x60, 0x00, 0x00, 0x07, 0xc0, 0x31, 0x00, 0x1f, 0x60, 0x00,
   0x00, 0x07, 0xc0, 0x31, 0x00, 0xff, 0x60, 0x00, 0x00, 0x07, 0xc0, 0x31,
   0x00, 0x1f, 0x60, 0x00, 0x80, 0x07, 0xc0, 0x33, 0x00, 0x00, 0x60, 0x00,
   0x80, 0x03, 0x80, 0x33, 0x00, 0x00, 0x60, 0x00, 0x80, 0x03, 0x80, 0x73,
   0x00, 0x00, 0x70, 0x00, 0x80, 0x03, 0x80, 0x73, 0x00, 0x00, 0x70, 0x00,
   0x80, 0xff, 0xff, 0xf3, 0x00, 0x00, 0x78, 0x00, 0x80, 0xff, 0xff, 0xe3,
   0x00, 0x00, 0x38, 0x00, 0x80, 0xff, 0xff, 0xe3, 0x01, 0x00, 0x3c, 0x00,
   0x00, 0x00, 0x03, 0xc0, 0x03, 0x00, 0x1e, 0x00, 0x00, 0x80, 0x07, 0x80,
   0x0f, 0x80, 0x0f, 0x00, 0x00, 0xc0, 0x0f, 0x00, 0x3f, 0xe0, 0x07, 0x00,
   0x00, 0xc0, 0x0f, 0x00, 0xfe, 0xff, 0x03, 0x00, 0x00, 0x80, 0x07, 0x00,
   0xf8, 0xff, 0x00, 0x00, 0x00, 0x00, 0x03, 0x00, 0xc0, 0x1f, 0x00, 0x00,
   0x00, 0x00, 0x00, 0x00, 0x00, 0x00, 0x00, 0x00};
