/* XPM */
static char * ical_xpm[] = {
"49 44 7 1",
" 	s None	c None	g None		m None",
"X	c black		g black		m black",
",	c #FFFFF3CEC71B g white		m white",
".	c white		g white		m white",
"o	c #30C2D75C28A2	g white		m white",
"O	c cyan		g gray40	m white",
"+	c red		g black		m black",
" XXXXXXXXXXXXXXXXXXXXXXXXXXXXXXXXXXXXXXXXXXXXXXX ",
" XXXXXXXXXXXXXXXXXXXXXXXXXXXXXXXXXXXXXXXXXXXXXXX ",
" XXXXXXXXXXXXXXXXXXXXXXXXXXXXXXXXXXXXXXXXXXXXXXX ",
" XXXXXXXX,,,,,,,,,,,,,,,,,,,,,,,,,,,,,XXXXXXXXXX ",
" XXXXXXXX,,,,XX,XX,XXX,,X,X,,X,,,,X,,,XXXXXXXXXX ",
" XXXXXXXX,,,,X,X,X,X,X,,XXX,,XXX,,X,,,XXXXXXXXXX ",
" XXXXXXXX,,,,X,,,X,XXXX,,,X,,X,X,,X,,,XXXXXXXXXX ",
" XXXXXXXX,,,,,,,,,,,,,,,,,,,,,,,,,,,,,XXXXXXXXXX ",
" XXXXXXXXXXXXXXXXXXXXXXXXXXXXXXXXXXXXXXXXXXXXXXX ",
" XXXXXXXXXXXXXXXXXXXXXXXXXXXXXXXXXXXXXXXXXXXXXXX ",
" XXX.....X.....X.....X.....X.....X.....X.....XXX ",
" XXX.XX..X..X..X..X..X..XX.X.X.X.X.XX..X.X.X.XXX ",
" XXX..X..X..XX.X..X..X.XX..X..X..X.XX..X.X.X.XXX ",
" XXX.....X.....X.....X.....X.....X.....X.....XXX ",
" XXXXXXXXXXXXXXXXXXXXXXXXXXXXXXXXXXXXXXXXXXXXXXX ",
" XXXX.X.XXX.X.XXX.X.XX.....X.....X.....X.....XXX ",
" XXX.X.X.X.X.X.X.X.X.X.....X.....X.....X.....XXX ",
" XXXX.X.XXX.X.XXX.X.XX.....X.....X...XXX.....XXX ",
" XXX.X.X.X.X.X.X.X.X.X.....X.....X..XXXXX....XXX ",
" XXXXXXXXXXXXXXXXXXXXXXXXXXXXXXXXXXXXXXXXXXXXXXX ",
" XXX.....X.....X.....X.....X.....X.XXXXXXX...XXX ",
" XXX.....X.....X.....X.....X.....XXXXXoXXXX..XXX ",
" XXX.....X.....X.....X.....X.....XXXXoooXXX..XXX ",
" XXX.....X.....X.....X.....X.....XXXoooooXX..XXX ",
" XXXXXXXXXXXXXXXXXXXXXXXXXXXXXXXXXXXoooooXXXXXXX ",
" XXX...XXXXXXXXXXXXXXX.....X....XXXXoooooXXX.XXX ",
" XXX..XXXXXXXXXXXXXXXXXX...X....XXXoooooooXXXXXX ",
" XXX.XXXXXXOOOOOOOXXXXXXX..X...XXXXoooooooXXXXXX ",
" XXXXXXXOOOOOO+OOOOOXXXXXX.X...XXXXoooooooXXXXXX ",
" XXXXXXOOOOOOO+OOOOOOOXXXXXX...XXXoooooooooXXXXX ",
" XXXXXOOOOOOOO+OOOOOOOOXXXXX...XXXoooooooooXXXXX ",
" XXXXOOOOOOOOO+OOOOOOOOOXXXX..XXXXoooooooooXXXXX ",
" XXXOOOOOOOOO+++OOOOOOOOOXXX..XXXoooooooooooXXXX ",
" XXXOOOOOOOOO+++OOOOOOOOOXXX..XXXoooooooooooXXXX ",
" XXOOOOOOOOOO+++OOOOOOOOOOXX..XXXoooooooooooXXXX ",
" XXOOOOOOOOOO+++OOOOOOOOOOXXX.XXXoooooooooooXXXX ",
" XXOOOOOOOOOO+++OOOOOOOOOOXXXXXXoooooooooooooXXX ",
" XXOOOOOOOOOO+++++OOOOOOOOXXXXXXoooooooooooooXXX ",
" XXOOOOOOOOOO++++++++OOOOOXXXXXXoooooooooooooXXX ",
" XXOOOOOOOOOO+++++OOOOOOOOXXXXXXXXXXXXXXXXXXXXXX ",
" XXOOOOOOOOOOOOOOOOOOOOOOOXXXXXXXXXXXXXXXXXXXXXX ",
" XXOOOOOOOOOOOOOOOOOOOOOOOXXXXXXXXXXXXXXXXXXXXXX ",
" XXXOOOOOOOOOOOOOOOOOOOOOXXX..........XX........ ",
" XXXOOOOOOOOOOOOOOOOOOOOOXXX.........XXXX....... "};
