/* XPM */
static char *dummy[]={
"24 24 9 1",
". c None",
"# c #008000",
"e c #5a60a5",
"g c #616161",
"d c #7f7f7f",
"c c #808080",
"f c #9a999a",
"a c #aa9faa",
"b c #b5b9b5",
"........................",
"........................",
"........................",
"........................",
"..............##........",
".............a##........",
".....bcddddd###e........",
".........e#####.........",
"....bcddd######.........",
".........#e#####........",
".....bcddee######.......",
"..........####e.##......",
"......##..#####e.e......",
".....e###e##e###........",
".....#f#####.e##........",
"........e##..f##........",
".............##e........",
"............d#e.........",
"............##gd........",
"............####........",
"........................",
"........................",
"........................",
"........................"};
