/* XPM */
static char * term_xpm[] = {
"24 24 259 2",
"  	c #BDBEB9",
". 	c #BFC0BB",
"+ 	c #C1C2BD",
"@ 	c #C3C4BF",
"# 	c #C6C7C2",
"$ 	c #C9C9C5",
"% 	c #CCCCC8",
"& 	c #CECECA",
"* 	c #D0D0CC",
"= 	c #D1D1CE",
"- 	c #D2D2CE",
"; 	c #D0D1CE",
"> 	c #D0D1CD",
", 	c #CFCFCD",
"' 	c #CDCDC9",
") 	c #CACAC5",
"! 	c #C7C7C3",
"~ 	c #C5C6C0",
"{ 	c #BEBEBD",
"] 	c #C7C7C8",
"^ 	c #C8C8C8",
"/ 	c #CACACB",
"( 	c #CBCBCC",
"_ 	c #CECECE",
": 	c #CFCFCF",
"< 	c #D1D1D1",
"[ 	c #D1D1D2",
"} 	c #D3D3D3",
"| 	c #D4D4D4",
"1 	c #D0D0D0",
"2 	c #CFCFD0",
"3 	c #CCCCCC",
"4 	c #CACACA",
"5 	c #C7C7C7",
"6 	c #BABAB5",
"7 	c #E8E8E8",
"8 	c #EAEAEA",
"9 	c #EBEBEB",
"0 	c #ECECEC",
"a 	c #EDEDED",
"b 	c #EAEAEB",
"c 	c #E8E8E9",
"d 	c #F7F7F7",
"e 	c #B1B1AE",
"f 	c #E4E4E5",
"g 	c #686868",
"h 	c #6D6D6D",
"i 	c #6E6E6E",
"j 	c #707070",
"k 	c #727272",
"l 	c #747474",
"m 	c #767676",
"n 	c #787878",
"o 	c #797979",
"p 	c #737373",
"q 	c #6A6A6A",
"r 	c #656565",
"s 	c #606060",
"t 	c #B1B1B2",
"u 	c #F0F0F0",
"v 	c #AEAEAB",
"w 	c #CCCCCD",
"x 	c #E2E2E3",
"y 	c #616160",
"z 	c #7B7B7B",
"A 	c #7E7E7E",
"B 	c #808080",
"C 	c #828282",
"D 	c #838383",
"E 	c #7D7D7D",
"F 	c #6F6F6F",
"G 	c #696969",
"H 	c #646464",
"I 	c #A2A2A2",
"J 	c #ECECED",
"K 	c #AAAAA8",
"L 	c #E0E0E1",
"M 	c #5B5B5B",
"N 	c #6B6B6B",
"O 	c #777777",
"P 	c #717171",
"Q 	c #5A5A5A",
"R 	c #565656",
"S 	c #5D5D5D",
"T 	c #9B9B9B",
"U 	c #E9E9EA",
"V 	c #A7A7A4",
"W 	c #C5C5C5",
"X 	c #DFDFDF",
"Y 	c #575757",
"Z 	c #9D9D9D",
"` 	c #6C6C6C",
" .	c #616161",
"..	c #545454",
"+.	c #515151",
"@.	c #4B4B4B",
"#.	c #535353",
"$.	c #949494",
"%.	c #E6E6E7",
"&.	c #A5A5A2",
"*.	c #C1C1C1",
"=.	c #DCDCDD",
"-.	c #A6A6A6",
";.	c #FAFAFA",
">.	c #E0E0E0",
",.	c #636363",
"'.	c #5F5F5F",
").	c #5C5C5C",
"!.	c #595959",
"~.	c #525252",
"{.	c #4E4E4E",
"].	c #4A4A4A",
"^.	c #464646",
"/.	c #414141",
"(.	c #494949",
"_.	c #8D8D8E",
":.	c #E3E3E4",
"<.	c #A2A29F",
"[.	c #BEBEBE",
"}.	c #DADADB",
"|.	c #505050",
"1.	c #676767",
"2.	c #F5F5F5",
"3.	c #EEEEEE",
"4.	c #555555",
"5.	c #4F4F4F",
"6.	c #4C4C4C",
"7.	c #474747",
"8.	c #444444",
"9.	c #404040",
"0.	c #3C3C3C",
"a.	c #3B3B3B",
"b.	c #454545",
"c.	c #8A8A8B",
"d.	c #E1E1E2",
"e.	c #9F9F9C",
"f.	c #BABABA",
"g.	c #D9D9DA",
"h.	c #585858",
"i.	c #E4E4E4",
"j.	c #484848",
"k.	c #424242",
"l.	c #3F3F3F",
"m.	c #3D3D3D",
"n.	c #3A3A3A",
"o.	c #383838",
"p.	c #888888",
"q.	c #DEDEDF",
"r.	c #9C9D9A",
"s.	c #B7B7B6",
"t.	c #D5D5D6",
"u.	c #969696",
"v.	c #CBCBCB",
"w.	c #393939",
"x.	c #373737",
"y.	c #363636",
"z.	c #343434",
"A.	c #3E3E3E",
"B.	c #858585",
"C.	c #DBDBDD",
"D.	c #9B9B98",
"E.	c #B3B3B4",
"F.	c #D2D2D3",
"G.	c #2E2E2E",
"H.	c #A8A8A8",
"I.	c #2A2A2A",
"J.	c #353535",
"K.	c #292929",
"L.	c #333333",
"M.	c #848484",
"N.	c #9A9A97",
"O.	c #AFAFAF",
"P.	c #1A1A1A",
"Q.	c #323232",
"R.	c #313131",
"S.	c #282828",
"T.	c #FFFFFF",
"U.	c #D6D6D7",
"V.	c #999997",
"W.	c #ACACAC",
"X.	c #C9C9CA",
"Y.	c #191919",
"Z.	c #2F2F2F",
"`.	c #161616",
" +	c #151515",
".+	c #303030",
"++	c #818182",
"@+	c #D4D4D5",
"#+	c #989895",
"$+	c #A7A7A8",
"%+	c #7E7E7F",
"&+	c #969694",
"*+	c #A3A3A4",
"=+	c #C5C5C6",
"-+	c #141414",
";+	c #2D2D2D",
">+	c #7D7D7E",
",+	c #CECECF",
"'+	c #949492",
")+	c #A0A0A1",
"!+	c #C3C3C4",
"~+	c #131313",
"{+	c #2C2C2C",
"]+	c #7C7C7C",
"^+	c #949491",
"/+	c #9C9C9D",
"(+	c #C2C2C3",
"_+	c #111111",
":+	c #2B2B2B",
"<+	c #7A7A7A",
"[+	c #C8C8C9",
"}+	c #92928F",
"|+	c #999999",
"1+	c #C0C0C2",
"2+	c #0E0E0E",
"3+	c #787879",
"4+	c #C6C6C6",
"5+	c #90908D",
"6+	c #959596",
"7+	c #333334",
"8+	c #929293",
"9+	c #C1C1C2",
"0+	c #8E8E8C",
"a+	c #8D8D8D",
"b+	c #ABABAC",
"c+	c #AAAAAB",
"d+	c #A9A9AA",
"e+	c #B4B4B5",
"f+	c #8D8E8A",
"g+	c #838381",
"h+	c #666666",
"i+	c #666667",
"j+	c #A9A9A5",
"k+	c #B8B9B4",
"l+	c #B5B6B1",
"m+	c #B0B0AC",
"n+	c #ABABA7",
"o+	c #A7A8A5",
"p+	c #A8A8A5",
"q+	c #A8A8A4",
"r+	c #A7A8A4",
"s+	c #A7A8A3",
"t+	c #A7A7A3",
"u+	c #A8A9A4",
"v+	c #AAA9A5",
"w+	c #AAABA6",
"x+	c #B0B1AC",
"y+	c #B6B6B1",
"z+	c #B9B9B4",
"A+	c #B9B9B3",
"B+	c #BBBCB7",
"C+	c #B8B9B5",
"D+	c #B9BAB5",
"E+	c #B8B9B3",
"F+	c #B9B9B5",
"G+	c #BABAB6",
"H+	c #BBBCB6",
"I+	c #BCBCB7",
"J+	c #C0C0BD",
"  . + @ # $ % & * = - = ; > , * ' ) ! ~ @ + .   ",
"{ ] ^ / ( _ : < [ } | | | | } [ 1 2 _ 3 4 ^ 5 6 ",
"| 7 8 9 9 9 0 0 a a a a a a a a 0 0 9 b b c d e ",
"1 f g h i j k l m n n n o n n m p i q r s t u v ",
"w x y j l m n z A B C D D B E o p F G H G I J K ",
"^ L M G N q j p l m O m l P h G H s Q R S T U V ",
"W X Y r Z _ g h F F ` N g r  .S Q ..+.@.#.$.%.&.",
"*.=.#. .-.;.>.` r ,. .'.).!.R ~.{.].^./.(._.:.<.",
"[.}.|. .s 1.2.3.).Q Y 4.~.5.6.7.8.9.0.a.b.c.d.e.",
"f.g.@.!.h.l 3.i.j.5.6.(.^.k.l.m.0.a.n.o.k.p.q.r.",
"s.t.9.{.u.8 v././.0.a.w.n.n.n.w.w.x.y.z.A.B.C.D.",
"E.F.G.a.i H.I.y.J.I.K.I.K.x.y.y.y.J.z.L.a.M.g.N.",
"O./ P.Q.R.S.z.z.].T.T.T.T.z.J.z.z.L.Q.Q.n.C U.V.",
"W.X.Y.R.Q.Q.Q.L.Z.`. + + +Q.R.R.R.R.R..+x.++@+#+",
"$+] `.Z..+.+.+.+.+.+.+Z.Z.Z.Z.Z.Z.Z.Z.G.J.%+[ &+",
"*+=+-+G.Z.Z.Z.Z.Z.Z.Z.Z.Z.Z.G.G.G.G.;+;+R.>+,+'+",
")+!+~+{+;+;+;+;+;+;+;+;+;+;+;+;+{+{+{+{+.+]+( ^+",
"/+(+_+I.:+:+{+{+{+{+{+{+{+{+{+:+:+:+:+I.;+<+[+}+",
"|+1+2+I.I.:+:+:+:+{+{+{+{+{+:+:+:+I.I.I.{+3+4+5+",
"6+(+.+7+L.L.Q.Q.Q.R.R.R.R.R.R.R.R.Q.Q.Q.Q.8+9+0+",
"a+b+c+c+c+c+c+c+c+d+d+d+d+d+d+d+d+d+c+c+c+c+e+f+",
"g+1.g 1.1.h+h+h+h+h+h+h+r h+h+h+h+h+h+h+h+i+1.j+",
"k+l+m+n+o+p+q+r+s+r+r+r+s+t+s+r+q+u+v+w+x+y+z+A+",
"B+C+D+D+D+D+D+C+C+k+E+k+k+k+k+z+k+k+F+G+H+I+H+J+"};
