/* XPM */
static char *dummy[]={
"24 24 213 2",
"a5 c #185eb8",
"a4 c #2266b8",
"a3 c #2468b8",
"aP c #2668ba",
"a2 c #266cba",
"aF c #266ebc",
"av c #2a70be",
"an c #2c74c2",
"a1 c #2e76be",
"af c #2e78c4",
"a0 c #327cc2",
"#3 c #347cc6",
"aZ c #3882c4",
"#V c #3882c8",
"#J c #3c8aca",
"aY c #3e8ac8",
"#x c #428ece",
"aX c #4490ce",
"#m c #4692d0",
".5 c #4696d2",
"aE c #4e86ba",
"aW c #4e98d0",
"aO c #5086ba",
"au c #528abc",
"aD c #528abe",
".4 c #52a0d6",
"aN c #548aba",
"am c #548cc0",
"at c #568cbe",
"aC c #568ec0",
"aV c #56a0d4",
"bs c #575757",
"ae c #5890c2",
"bh c #5a5a5a",
".3 c #5aa6da",
"aM c #5c90c0",
"al c #5c90c2",
"aB c #5c92c2",
"aU c #5ca6d8",
"bq c #5e5e5e",
"#2 c #5e94c4",
"ad c #6094c4",
"ak c #6096c4",
"aA c #6296c6",
".2 c #62acda",
"bi c #646464",
"#U c #649ac6",
"ac c #649ac8",
"aT c #64acdc",
"bp c #666666",
"aL c #669ac4",
"#I c #689cc8",
"#T c #689eca",
".1 c #6ab2de",
"ab c #6ca0ca",
"aS c #6cb4de",
"#w c #6ea0ca",
"#H c #6ea2cc",
"#S c #6ea4cc",
"bj c #707070",
"#1 c #70a4ce",
"aK c #72a4ca",
"#l c #74a6ce",
".0 c #74bae2",
".t c #767676",
"#R c #76a8d0",
"aa c #76aad0",
"aR c #76bae2",
".# c #7a7a7a",
"aj c #7aaad0",
"as c #7aaad2",
".M c #7c7a7c",
".6 c #7c7c7c",
"#k c #7caad0",
"#G c #7cacd2",
"#Q c #7caed2",
"#0 c #7caed4",
".s c #7e7e7e",
"aQ c #7ec4ea",
"a6 c #808080",
"aJ c #80aed2",
"a# c #80b0d4",
".Z c #80c2e6",
".a c #828282",
"#j c #82b0d4",
"#P c #82b2d6",
"#Z c #82b2d8",
"a. c #84b4d8",
"a7 c #868482",
"bg c #868684",
"aI c #86b2d6",
"ai c #86b4d8",
".b c #888684",
".r c #888886",
"bk c #888888",
"#i c #88b4d8",
"#F c #88b6d8",
"#O c #88b6da",
"#v c #88b8d8",
"#Y c #88b8da",
"#9 c #8ab8da",
"a8 c #8c8a8a",
"ar c #8cb8da",
".c c #8e8c8c",
"az c #8ebcdc",
".Y c #8ecaea",
"bf c #908c8c",
"#h c #90bcdc",
"#8 c #90bede",
"aG c #90ceea",
".q c #928e8e",
"ay c #92bede",
".O c #92ceee",
".d c #949294",
"#E c #94bee0",
"#N c #94c0de",
"#X c #94c0e0",
"#7 c #96c2e0",
".P c #96d0ec",
"#u c #98c2e0",
".7 c #98d0ec",
"be c #9a9896",
"#g c #9ac2e0",
"#D c #9ac4e2",
".Q c #9ad2ee",
".p c #9c9a98",
"a9 c #9c9a9a",
".X c #9cd0ec",
"#n c #9cd4ee",
".e c #9e9c9c",
"aH c #9ec4e0",
"aq c #9ec6e4",
"#t c #9ec8e4",
"#C c #a0c8e4",
"ax c #a0cae4",
".o c #a4a2a2",
"ah c #a4cae6",
"ao c #a4d6f0",
".R c #a4d8f0",
"b. c #a6a6a4",
"#f c #a6c8e4",
"#s c #a6cce6",
"#B c #a6cee6",
"#y c #a6d8f0",
".f c #a8a8a6",
"#6 c #aacee8",
"aw c #aad0e8",
"bd c #acaaaa",
".n c #acacac",
".g c #acaeae",
".W c #acd8f0",
".8 c #aed0e8",
"#r c #aed2ea",
"#e c #b0d0e8",
"#M c #b0d4ea",
".S c #b0daf2",
"#K c #b0dcf2",
"bc c #b4b4b4",
"#A c #b4d4ea",
"ap c #b4d4ec",
".V c #b4def2",
".m c #b6b6b6",
"#W c #b6def2",
"b# c #b8b6b6",
"br c #b8b8b8",
"#d c #b8d6ec",
".T c #b8def2",
".U c #b8e0f2",
".h c #bab8b8",
".9 c #bad8ec",
"bb c #bebaba",
"ba c #bebebe",
"ag c #bedaee",
".l c #c0bcbc",
".i c #c0c0c0",
"#z c #c2deee",
".k c #c4c0c0",
".j c #c4c4c4",
"#c c #c4deee",
"#q c #c6e0f0",
"bo c #c8c8c8",
"#. c #c8e0f0",
"#o c #cae2f2",
"#b c #cee2f2",
"bn c #d0d0d0",
"#L c #d0e4f2",
"## c #d2e4f2",
"#a c #d2e6f2",
"bm c #d6d6d6",
"#p c #d6e8f2",
".K c #dadee2",
".v c #dee0e0",
".J c #dee4e6",
".w c #e2e2e4",
".N c #e4dedc",
".u c #e4e0de",
".x c #e4e6e6",
".I c #e4e8ea",
"#4 c #e6e0de",
".L c #e6e2e0",
"#5 c #e6e4e0",
".H c #e6ecee",
".y c #e8eaec",
".G c #eaf0f4",
"bl c #ececec",
".z c #eceef0",
".F c #eef4f6",
".A c #f0f2f4",
".B c #f2f4f4",
".E c #f2f8fa",
".C c #f4f8fa",
".D c #f4fafc",
"Qt c #ffffff",
"Qt.#.a.b.c.d.e.f.g.h.i.i.j.j.k.l.m.n.o.p.q.r.sQt",
"Qt.t.u.v.w.x.y.z.A.B.C.C.D.C.E.F.G.H.I.J.K.L.MQt",
"Qt.t.N.O.P.Q.R.S.T.U.V.W.X.Y.Z.0.1.2.3.4.5.L.6Qt",
"Qt.t.N.7.8.9#.###a#b#c#d#e#f#g#h#i#j#k#l#m.L.6Qt",
"Qt.t.N#n.9#o#p#a#q.9#r#s#t#u#h#v#j#k#l#w#x.L.MQt",
"Qt.t.u#y#.#p###z#A#B#C#D#E#h#F#j#G#l#H#I#J.u.6Qt",
"Qt.#.L#K#L###z#M#s#t#D#N#h#O#P#Q#R#S#T#U#V.L.6Qt",
"Qt.#.L#W#L#q#A#s#C#D#X#h#Y#Z#0#R#1#T#U#2#3#4.MQt",
"Qt.6#5#W#..9#6#C#D#7#8#9a.a#aa#1abacadaeaf.L.6Qt",
"Qt.6#5.Sag#Mah#D#7#8#9aia#aj#lab#Iakalaman.u.6Qt",
"Qt.#.Laoap#6aq#7#8araia#as#l#H#Iakalatauav.u.6Qt",
"Qt.#.u.Qawax#Dayaz#i#P#G#l#H#IaAaBaCaDaEaF.L.MQt",
"Qt.t.NaGahaH#7#h#9aIaJajaKabaLakaMataNaOaP.L.MQt",
"Qt.t.NaQ.ZaRaSaTaUaVaWaXaYaZa0a1ava2a3a4a5#4.6Qt",
"Qt.t.u.v.w.x.y.z.A.B.C.C.D.C.E.F.G.H.I.J.K.L.MQt",
"Qt.ta6a7a8.da9b..nb#ba.i.j.j.kbbbcbd.obebfbg.6Qt",
"QtQtQtQtQtQtQtQtQtbhbhbibj.aa8QtQtQtQtQtQtQtQtQt",
"QtQtbkbkbkbkbkbkbkbkbkbkbkbkbkbkbkbkbkbkbkbkQtQt",
"Qt.ablblbmblblbmblblbmblblbmblblbmbmblbmbmbl.aQt",
".#bnbhbhbnbhbhbnbhbhbnbhbhbnbhbhbnbnbhbnbnbhbn.#",
"bjboblblboblblboblblboblblboblblboboblboboblbobj",
"bp.ibhbh.ibhbh.ibhbh.ibhbh.ibhbh.i.ibh.i.ibh.ibp",
"bqbrbrbrbrbrbrbrbrbrbrbrbrbrbrbrbrbrbrbrbrbrbrbq",
"bsbsbsbsbsbsbsbsbsbsbsbsbsbsbsbsbsbsbsbsbsbsbsbs"};
