/* XPM */
static char *dummy[]={
"24 24 81 2",
"Qt c None",
".# c #000000",
"#o c #676359",
".n c #88847b",
".f c #8d887e",
".o c #8f8a81",
".v c #979288",
"#g c #999891",
"#f c #9b958a",
"#n c #9b968a",
"## c #9d978b",
"#m c #9d978c",
".3 c #9e988d",
".T c #9f998d",
"#l c #a19b8f",
".G c #a19b90",
".y c #a19c90",
"#k c #a29c90",
"#j c #a39d91",
"#i c #a39d92",
"#h c #a39e92",
".w c #a49e93",
"#a c #d1d1d1",
".a c #d3d3d3",
"#e c #d5d3ce",
"#. c #d7d5d1",
"#d c #d7d6d1",
".9 c #d8d6d1",
".2 c #d8d6d2",
".S c #d9d7d3",
".R c #dbd9d5",
".1 c #dcdad6",
".N c #dcdbd7",
".0 c #dddbd7",
".F c #dddcd8",
"#c c #dedcd8",
".E c #deddd9",
".D c #dfdeda",
".8 c #e0deda",
".7 c #e0dfdb",
"#b c #e1dfdb",
".6 c #e1dfdc",
".Z c #e1e0dc",
".5 c #e1e0dd",
".x c #e2e0dd",
".Y c #e2e1dd",
".W c #e3e2de",
".V c #e3e2df",
".X c #e4e2df",
".M c #e4e3df",
".U c #e4e3e0",
".Q c #e5e4e0",
".C c #e5e4e1",
".P c #e6e4e1",
".O c #e6e5e2",
".L c #e7e5e2",
".K c #e7e6e3",
".J c #e8e7e4",
".I c #e8e7e5",
".A c #e9e8e5",
".H c #e9e8e6",
".B c #ebeae8",
".u c #ecebe9",
".m c #edecea",
".z c #ededeb",
".4 c #ededed",
".r c #eeedeb",
".t c #f0efed",
".s c #f0f0ee",
".q c #f1f0ee",
".p c #f2f2f0",
".l c #f6f6f4",
".b c #f6f6f6",
".k c #f9f9f8",
".d c #f9f9f9",
".j c #fafaf9",
".e c #fbfbfb",
".i c #fcfcfb",
".h c #fdfdfd",
".g c #fefefe",
".c c #ffffff",
"QtQtQtQtQtQtQtQtQtQtQtQtQtQtQtQtQtQtQtQtQtQtQtQt",
"QtQtQt.#.#.#.#.#.#.#.#.#.#.#.#.#.#.#.#.#.#QtQtQt",
"QtQt.#.a.b.c.c.c.c.c.c.c.c.d.e.e.e.e.e.e.f.#QtQt",
"QtQt.#.b.c.c.c.c.c.c.c.c.c.e.e.e.e.e.e.e.f.#QtQt",
"QtQt.#.c.c.c.c.c.c.c.g.c.g.h.e.e.e.e.e.e.f.#QtQt",
"QtQt.#.c.c.c.c.c.g.h.i.h.i.e.e.e.e.e.e.e.f.#QtQt",
"QtQt.#.c.c.c.c.h.i.e.c.e.j.k.k.k.k.k.k.k.f.#QtQt",
"QtQt.#.c.h.k.#.#.#.i.i.i.h.h.k.k.k.k.k.k.f.#QtQt",
"QtQt.#.c.#.#.l.m.m.i.k.i.i.l.l.l.l.l.l.l.f.#QtQt",
"QtQt.#.c.#.m.l.l.m.m.k.l.i.#.#.#.k.k.l.k.n.#QtQt",
"QtQt.#.c.#.m.l.l.m.m.k.l.#.i.h.l.#.l.k.h.o.#QtQt",
"QtQt.#.c.#.m.p.m.#.#.#.p.#.q.r.l.#.l.h.k.f.#QtQt",
"QtQt.#.c.#.m.p.s.m.m.t.q.#.m.u.l.#.l.l.k.v.#QtQt",
"QtQt.#.c.#.#.p.s.m.m.t.q.i.#.#.#.h.h.l.k.w.#QtQt",
"QtQt.#.c.t.#.#.#.#.t.m.m.i.h.h.h.#.x.h.h.y.#QtQt",
"QtQt.#.c.z.m.u.u.u.m.A.B.A.u.C.k.#.D.E.F.G.#QtQt",
"QtQt.#.c.B.H.H.I.J.m.K.J.K.L.M.l.#.E.F.N.G.#QtQt",
"QtQt.#.c.K.O.O.O.C.P.Q.P.Q.#.#.#.l.N.R.S.T.#QtQt",
"QtQt.#.d.U.V.W.X.M.Y.W.Y.W.Z.Z.E.0.1.S.2.3.#QtQt",
"QtQt.#.4.5.6.Z.7.Y.7.Z.7.Z.D.8.0.1.S.9#.##.#QtQt",
"QtQt.##a#b.8.D.E.7.E.8.E.8#c#c.1.1.2#d#e#f.#QtQt",
"QtQt.##g#h.w#i#j#i.y#k.y#k#l.G.T.T#m#m#n#o.#QtQt",
"QtQtQt.#.#.#.#.#.#.#.#.#.#.#.#.#.#.#.#.#.#QtQtQt",
"QtQtQtQtQtQtQtQtQtQtQtQtQtQtQtQtQtQtQtQtQtQtQtQt"};
