/* XPM */
static char *dummy[]={
"24 24 86 2",
".Y c #1d6b17",
".N c #1f6d19",
".y c #226f1b",
".j c #26711e",
".g c #297321",
".d c #2d7624",
".b c #327927",
".# c #367c2b",
".a c #3b802f",
"#e c #408333",
".m c #438536",
"#f c #458736",
".n c #488939",
"#g c #4b8a3b",
".o c #4e8c3e",
"#h c #508e3e",
".p c #539041",
"#i c #559142",
".q c #579345",
"#j c #5a9546",
".r c #5c9749",
"#k c #5e984a",
".s c #609a4d",
"#l c #639b4d",
".t c #659d50",
"#m c #679e50",
".u c #69a053",
"#n c #6aa053",
".v c #6ca256",
"#o c #6ea256",
".w c #70a358",
".x c #71a458",
"#r c #84ba58",
"#q c #89bf58",
"#p c #8ec358",
"#d c #90c657",
".3 c #93c958",
".2 c #97cc59",
".1 c #99cd5a",
".M c #9dbd85",
".4 c #9dcd68",
".0 c #9dd05e",
".P c #9fd163",
".5 c #a1cf6f",
".A c #a2d267",
".6 c #a3d075",
".7 c #a6d07a",
".l c #a6d46d",
".8 c #a9d180",
".i c #a9d573",
".9 c #acd187",
".f c #add77a",
"#. c #aed28c",
"## c #b1d391",
".L c #b1d584",
".B c #b1d980",
"#a c #b2d396",
"#b c #b5d49b",
".K c #b6d88c",
".C c #b6db88",
".c c #b6e084",
"#c c #b7d59e",
".J c #badb92",
".D c #badd8f",
".e c #bbe38d",
".E c #bddd94",
".I c #bedd97",
".Q c #bede96",
".F c #bfde98",
".H c #c0de99",
".G c #c0df9a",
".R c #c2e09d",
".h c #c2e698",
".S c #c7e2a5",
".k c #c9e9a4",
".T c #cbe4ab",
".U c #cfe6b2",
".z c #d0ecaf",
".V c #d2e7b8",
".O c #d5efb8",
".W c #d6e9be",
".X c #d9eac2",
".Z c #d9f1be",
"#t c #edeeeb",
"#s c #fcfcfb",
"Qt c #ffffff",
"QtQtQtQtQtQtQtQtQtQtQtQtQtQtQtQtQtQtQtQtQtQtQtQt",
"QtQtQtQtQtQtQtQtQtQtQtQtQtQtQtQtQtQtQtQtQtQtQtQt",
"QtQtQtQtQtQtQtQtQtQtQtQtQtQtQtQtQtQtQtQtQtQtQtQt",
"QtQtQtQtQtQtQtQtQtQtQtQtQtQtQtQtQtQtQtQtQtQtQtQt",
"QtQtQtQtQtQtQtQt.#.aQtQtQtQtQtQtQtQtQtQtQtQtQtQt",
"QtQtQtQtQtQtQt.b.c.aQtQtQtQtQtQtQtQtQtQtQtQtQtQt",
"QtQtQtQtQtQt.d.e.f.aQtQtQtQtQtQtQtQtQtQtQtQtQtQt",
"QtQtQtQtQt.g.h.i.f.aQtQtQtQtQtQtQtQtQtQtQtQtQtQt",
"QtQtQtQt.j.k.l.i.f.a.m.n.o.p.q.r.s.t.u.v.w.xQtQt",
"QtQtQt.y.z.A.l.i.f.B.C.D.E.F.G.H.I.J.K.L.M.xQtQt",
"QtQt.N.O.P.A.l.i.f.B.C.D.Q.R.S.T.U.V.W.X.M.xQtQt",
"Qt.Y.Z.0.P.A.l.i.f.B.C.D.Q.R.S.T.U.V.W.X.M.xQtQt",
"Qt.Y.1.0.P.A.l.i.f.B.C.D.Q.R.S.T.U.V.W.X.M.xQtQt",
"QtQt.N.2.P.A.l.i.f.B.C.D.Q.R.S.T.U.V.W.X.M.xQtQt",
"QtQtQt.y.3.A.l.i.f.4.5.6.7.8.9#.###a#b#c.M.xQtQt",
"QtQtQtQt.j#d.l.i.f.a#e#f#g#h#i#j#k#l#m#n#o.xQtQt",
"QtQtQtQtQt.g#p.i.f.aQtQtQtQtQtQtQtQtQtQtQtQtQtQt",
"QtQtQtQtQtQt.d#q.f.aQtQtQtQtQtQtQtQtQtQtQtQtQtQt",
"QtQtQtQtQtQtQt.b#r.aQtQtQtQtQtQtQtQtQtQtQtQtQtQt",
"QtQtQtQtQtQtQtQt.#.aQtQtQtQtQtQtQtQtQtQtQtQtQtQt",
"QtQtQtQtQtQtQtQt#s#tQtQtQtQtQtQtQtQtQtQtQtQtQtQt",
"QtQtQtQtQtQtQtQtQtQtQtQtQtQtQtQtQtQtQtQtQtQtQtQt",
"QtQtQtQtQtQtQtQtQtQtQtQtQtQtQtQtQtQtQtQtQtQtQtQt",
"QtQtQtQtQtQtQtQtQtQtQtQtQtQtQtQtQtQtQtQtQtQtQtQt"};
