/* XPM */
static char *dummy[]={
"24 24 84 2",
"Qt c None",
".# c #000000",
"#r c #676359",
".n c #88847b",
".f c #8d887e",
".p c #8f8a81",
".w c #979288",
"#j c #999891",
"#i c #9b958a",
"#q c #9b968a",
"#c c #9d978b",
"#p c #9d978c",
".7 c #9e988d",
".Z c #9f998d",
"#o c #a19b8f",
".K c #a19b90",
".B c #a19c90",
"#n c #a29c90",
"#m c #a39d91",
"#l c #a39d92",
"#k c #a39e92",
".x c #a49e93",
"#d c #d1d1d1",
".a c #d3d3d3",
"#h c #d5d3ce",
"#b c #d7d5d1",
"#g c #d7d6d1",
"#a c #d8d6d1",
".6 c #d8d6d2",
".Y c #d9d7d3",
".X c #dbd9d5",
".5 c #dcdad6",
".S c #dcdbd7",
".4 c #dddbd7",
".J c #dddcd8",
"#f c #dedcd8",
".I c #deddd9",
".H c #dfdeda",
"## c #e0deda",
".R c #e0dfdb",
"#e c #e1dfdb",
"#. c #e1dfdc",
".3 c #e1e0dc",
".9 c #e1e0dd",
".A c #e2e0dd",
".W c #e2e1dd",
".G c #e3e2de",
".1 c #e3e2df",
".2 c #e4e2df",
".Q c #e4e3df",
".0 c #e4e3e0",
".V c #e5e4e0",
".F c #e5e4e1",
".U c #e6e4e1",
".T c #e6e5e2",
".P c #e7e5e2",
".O c #e7e6e3",
".N c #e8e7e4",
".M c #e8e7e5",
".D c #e9e8e5",
".L c #e9e8e6",
".E c #ebeae8",
".v c #ecebe9",
".m c #edecea",
".C c #ededeb",
".8 c #ededed",
".s c #eeedeb",
".z c #efeeec",
".y c #efefed",
".u c #f0efed",
".t c #f0f0ee",
".r c #f1f0ee",
".o c #f2f2f0",
".q c #f4f3f2",
".l c #f6f6f4",
".b c #f6f6f6",
".k c #f9f9f8",
".d c #f9f9f9",
".j c #fafaf9",
".e c #fbfbfb",
".i c #fcfcfb",
".h c #fdfdfd",
".g c #fefefe",
".c c #ffffff",
"QtQtQtQtQtQtQtQtQtQtQtQtQtQtQtQtQtQtQtQtQtQtQtQt",
"QtQtQt.#.#.#.#.#.#.#.#.#.#.#.#.#.#.#.#.#.#QtQtQt",
"QtQt.#.a.b.c.c.c.c.c.c.c.c.d.e.e.e.e.e.e.f.#QtQt",
"QtQt.#.b.c.c.c.c.c.c.c.c.c.e.e.e.e.e.e.e.f.#QtQt",
"QtQt.#.c.c.c.c.c.c.c.g.c.g.h.e.e.e.e.e.e.f.#QtQt",
"QtQt.#.c.c.c.c.c.g.h.i.h.i.e.e.e.e.e.e.e.f.#QtQt",
"QtQt.#.c.c.c.c.h.i.e.c.e.j.k.k.k.k.k.k.k.f.#QtQt",
"QtQt.#.c.h.#.#.#.h.#.#.#.h.h.k.k.k.k.k.k.f.#QtQt",
"QtQt.#.c.#.#.l.#.#.#.k.#.#.l.l.l.l.l.l.l.f.#QtQt",
"QtQt.#.c.#.m.l.l.#.m.k.l.#.m.#.k.k.k.#.k.n.#QtQt",
"QtQt.#.c.#.m.l.l.#.m.k.l.#.o.h.#.k.#.k.h.p.#QtQt",
"QtQt.#.c.#.m.o.q.#.m.k.o.#.r.s.h.#.k.h.k.f.#QtQt",
"QtQt.#.c.#.m.o.t.#.m.u.r.#.m.v.#.h.#.k.k.w.#QtQt",
"QtQt.#.c.#.m.o.t.#.m.u.r.#.m.#.h.h.h.#.k.x.#QtQt",
"QtQt.#.c.#.m.y.z.#.m.m.m.#.h.h.h.k.A.h.h.B.#QtQt",
"QtQt.#.c.C.m.v.v.v.m.D.E.D.v.F.k.G.H.I.J.K.#QtQt",
"QtQt.#.c.E.L.L.M.N.m.O.N.O.P.Q.G.R.I.J.S.K.#QtQt",
"QtQt.#.c.O.T.T.T.F.U.V.U.V.Q.W.R.I.S.X.Y.Z.#QtQt",
"QtQt.#.d.0.1.G.2.Q.W.G.W.G.3.3.I.4.5.Y.6.7.#QtQt",
"QtQt.#.8.9#..3.R.W.R.3.R.3.H##.4.5.Y#a#b#c.#QtQt",
"QtQt.##d#e##.H.I.R.I##.I###f#f.5.5.6#g#h#i.#QtQt",
"QtQt.##j#k.x#l#m#l.B#n.B#n#o.K.Z.Z#p#p#q#r.#QtQt",
"QtQtQt.#.#.#.#.#.#.#.#.#.#.#.#.#.#.#.#.#.#QtQtQt",
"QtQtQtQtQtQtQtQtQtQtQtQtQtQtQtQtQtQtQtQtQtQtQtQt"};
