/* XPM */
static char *dummy[]={
"24 24 175 2",
"av c #b83838",
"a. c #c02c2c",
"aj c #c0302c",
"#2 c #c4302c",
"aA c #c4342c",
"aH c #c43830",
"#Z c #c43c38",
"aJ c #c4403c",
"#Q c #c82420",
"ad c #c82c24",
"aa c #c83430",
"#0 c #c83c38",
"ap c #c84440",
"aR c #c8504c",
"ak c #c85050",
"#T c #cc3430",
"aG c #cc4034",
"aN c #cc4434",
"#X c #cc4844",
"aS c #cc4c3c",
"ax c #cc6464",
"#P c #d03028",
"#M c #d03830",
"au c #d03c30",
"#4 c #d06864",
"am c #d06c6c",
"#J c #d42420",
"#H c #d4342c",
"#I c #d43830",
"#x c #d82820",
"#F c #d82c24",
"#D c #d83830",
"aF c #d85440",
"#6 c #d88484",
"#y c #dc2420",
"#A c #dc3c30",
".4 c #e01414",
"#r c #e01818",
"#u c #e01c18",
"#C c #e02018",
"#o c #e0241c",
"#1 c #e0342c",
"#m c #e03830",
"#t c #e03c30",
"#v c #e0483c",
"an c #e04c3c",
"#w c #e05448",
"aO c #e06c54",
"#d c #e41814",
".Z c #e41c18",
"#B c #e41e1a",
".5 c #e4201c",
"#l c #e4241c",
".8 c #e42420",
"#c c #e4281c",
"#O c #e42824",
"#j c #e42c24",
"#i c #e42c28",
"#N c #e43028",
"#5 c #e4382c",
"#n c #e44034",
"ai c #e44838",
"#q c #e45848",
"ay c #e45c48",
"#8 c #e46854",
"aK c #e46c50",
"aw c #e4acac",
"az c #e4b0b0",
"#p c #e61c1a",
".N c #e61e1a",
".M c #e62622",
".Q c #e8241c",
".O c #e82820",
"#K c #e82824",
".X c #e83028",
".Y c #e83428",
"#a c #e83830",
"#h c #e84034",
".R c #e84236",
".A c #e84438",
".z c #e84838",
"aE c #e86850",
"#s c #e8786c",
"#S c #e8b0b0",
"#W c #e8b4b0",
"aI c #e8b8b8",
".K c #ea4034",
".B c #ea4e40",
".P c #ec3024",
"#R c #ec3428",
"#U c #ec3c30",
".v c #ec3e30",
"#Y c #ec4030",
"#7 c #ec4838",
".S c #ec5040",
"ag c #ec5440",
"ah c #ec5444",
"## c #ec5448",
".L c #ec5c48",
".y c #ec604c",
"ar c #ec6850",
"#e c #ec685c",
".C c #ec6c56",
"aB c #ec7458",
"#k c #ec908c",
".J c #ee382a",
".F c #ee5440",
".w c #ee745e",
".T c #f04434",
"ab c #f04c3c",
".W c #f04e3e",
".6 c #f05040",
".l c #f05440",
".3 c #f05848",
"ae c #f0644c",
"#9 c #f06450",
".9 c #f06858",
"at c #f06c54",
"ao c #f0745c",
".m c #f0745e",
"af c #f0785c",
".x c #f07c64",
"#b c #f07c74",
".E c #f07e64",
"#z c #f0b8b4",
"#3 c #f0cccc",
"a# c #f0d0d0",
"ac c #f0d4d4",
".k c #f23c2a",
".s c #f2644c",
".r c #f28066",
".D c #f28e72",
".e c #f44632",
".u c #f45040",
".G c #f45442",
"as c #f47054",
"aD c #f47c60",
".0 c #f48074",
"aP c #f49470",
".n c #f4987c",
".q c #f49c80",
".p c #f4a888",
"#G c #f4d0cc",
"#V c #f4d0d0",
"#L c #f4d8d8",
"aq c #f4e0e0",
".o c #f6a88a",
".d c #f84c34",
".f c #f84c36",
"aC c #f88064",
"aM c #f89070",
"aL c #f89470",
".2 c #f8bcb4",
"#g c #f8d0d0",
"#E c #f8dcd8",
".c c #fa6654",
".g c #fa6a56",
".j c #fa8478",
".I c #fabeb6",
".U c #fac4be",
".b c #fc988e",
".h c #fc9a8e",
"aQ c #fca880",
".t c #fcc0b8",
".H c #fcc6be",
"#. c #fcd8d4",
".1 c #fcdcd8",
".V c #fce8e6",
"#f c #fcf4f0",
"al c #fcf8f8",
".7 c #fcfcfc",
".a c #fedcd8",
".i c #fee4e2",
".# c #fefefe",
"Qt c #ffffff",
"QtQtQtQtQtQtQtQtQtQtQtQtQtQtQtQtQtQtQtQtQtQtQtQt",
"QtQtQtQtQtQt.#.a.b.c.d.e.e.f.g.h.a.#QtQtQtQtQtQt",
"QtQtQtQtQt.i.j.k.l.m.n.o.p.q.r.s.e.j.iQtQtQtQtQt",
"QtQtQtQt.t.u.v.w.w.x.y.z.A.B.C.D.E.F.G.HQtQtQtQt",
"QtQtQt.I.J.K.m.L.M.N.O.P.P.Q.N.N.R.C.S.T.UQtQtQt",
"QtQt.V.W.X.y.Y.Z.K.0.I.1.1.2.3.O.4.5.B.A.6.VQtQt",
"Qt.7.0.8.z.M.Z.9#.QtQtQtQt.1##.Z.4.4.Z#a.Y#b.7Qt",
"Qt.1#c.X.M#d#e#fQtQtQtQt#g#h.Z.4.4.4.4.Z#i#j.1Qt",
"Qt#k#l.M#d#m#.QtQtQtQt#g#n.Z.4.4.4.Z#o.4#p.8#kQt",
"Qt#q.Z#p#r#sQtQtQtQt#g#t#u#d#d#d.Z#v#w#r#d.Z#qQt",
"Qt#x#p#p#y#zQtQtQt#g#A#B#p#p#p#C#D#E#z#y#p.Z#xQt",
"Qt#x.Q.8#F#EQtQt#G#H.8.8.8.8#o#I#gQt#E#F.8.Q#xQt",
"Qt#J#K#K#F#LQt#G#M#N#K#j#K#O#P#GQtQt#L#F#K#K#JQt",
"Qt#Q#R.Y#F#S#L#T#n#U.X.Y#N#T#VQtQtQt#W#F.Y#R#QQt",
"Qt#X#a#Y#m#Z#0#q.S#U.v#1#2#3QtQtQtQt#4#5#U#a#XQt",
"Qt#6#D#7.y#M#8#9#7#7#ta.#3QtQtQtQta#aa.zab#D#6Qt",
"Qtacad.lae.nafagahaiaj#3QtQtQtQt#fakai.l.ladacQt",
"Qtalamanaeaoae.yanap#LQtQtQtQta#akan.saeanamalQt",
"QtQtaq#Zarasatasauavawac#L#Sax#0ayasasar#ZaqQtQt",
"QtQtQtazaAaBaCaDaDaEaFaGaGaFaEaDaCaCaBaHaIQtQtQt",
"QtQtQtQt#SaJaKaLaLaMaMaMaMaMaMaLaMaKaJaIQtQtQtQt",
"QtQtQtQtQtaqamaNaOaPaQaQaQaQaPaOaNamaqQtQtQtQtQt",
"QtQtQtQtQtQt.#ac#6aRaHaSaSaHaR#6ac.#QtQtQtQtQtQt",
"QtQtQtQtQtQtQtQtQtQtQtQtQtQtQtQtQtQtQtQtQtQtQtQt"};
