/* XPM */
static char *dummy[]={
"24 24 86 2",
".0 c #1d6b17",
".X c #1f6d19",
".M c #226f1b",
".x c #26711e",
".i c #297321",
".f c #2d7624",
".c c #327927",
".a c #367c2b",
".# c #3b802f",
"#n c #408333",
".u c #438536",
"#m c #458736",
".t c #488939",
"#l c #4b8a3b",
".s c #4e8c3e",
"#k c #508e3e",
".r c #539041",
"#j c #559142",
".q c #579345",
"#i c #5a9546",
".p c #5c9749",
"#h c #5e984a",
".o c #609a4d",
"#g c #639b4d",
".n c #659d50",
"#f c #679e50",
".m c #69a053",
"#e c #6aa053",
".l c #6ca256",
"#d c #6ea256",
".k c #70a358",
".j c #71a458",
"#r c #84ba58",
"#q c #89bf58",
"#p c #8ec358",
"#o c #90c657",
"#c c #93c958",
".2 c #97cc59",
".1 c #99cd5a",
".y c #9dbd85",
"#b c #9dcd68",
".Y c #9dd05e",
".V c #9fd163",
"#a c #a1cf6f",
".K c #a2d267",
"## c #a3d075",
"#. c #a6d07a",
".v c #a6d46d",
".9 c #a9d180",
".g c #a9d573",
".8 c #acd187",
".d c #add77a",
".7 c #aed28c",
".6 c #b1d391",
".z c #b1d584",
".J c #b1d980",
".5 c #b2d396",
".4 c #b5d49b",
".A c #b6d88c",
".I c #b6db88",
".b c #b6e084",
".3 c #b7d59e",
".B c #badb92",
".H c #badd8f",
".e c #bbe38d",
".G c #bddd94",
".C c #bedd97",
".U c #bede96",
".F c #bfde98",
".D c #c0de99",
".E c #c0df9a",
".T c #c2e09d",
".h c #c2e698",
".S c #c7e2a5",
".w c #c9e9a4",
".R c #cbe4ab",
".Q c #cfe6b2",
".L c #d0ecaf",
".P c #d2e7b8",
".W c #d5efb8",
".O c #d6e9be",
".N c #d9eac2",
".Z c #d9f1be",
"#s c #edeeeb",
"#t c #fcfcfb",
"Qt c #ffffff",
"QtQtQtQtQtQtQtQtQtQtQtQtQtQtQtQtQtQtQtQtQtQtQtQt",
"QtQtQtQtQtQtQtQtQtQtQtQtQtQtQtQtQtQtQtQtQtQtQtQt",
"QtQtQtQtQtQtQtQtQtQtQtQtQtQtQtQtQtQtQtQtQtQtQtQt",
"QtQtQtQtQtQtQtQtQtQtQtQtQtQtQtQtQtQtQtQtQtQtQtQt",
"QtQtQtQtQtQtQtQtQtQtQtQtQtQt.#.aQtQtQtQtQtQtQtQt",
"QtQtQtQtQtQtQtQtQtQtQtQtQtQt.#.b.cQtQtQtQtQtQtQt",
"QtQtQtQtQtQtQtQtQtQtQtQtQtQt.#.d.e.fQtQtQtQtQtQt",
"QtQtQtQtQtQtQtQtQtQtQtQtQtQt.#.d.g.h.iQtQtQtQtQt",
"QtQt.j.k.l.m.n.o.p.q.r.s.t.u.#.d.g.v.w.xQtQtQtQt",
"QtQt.j.y.z.A.B.C.D.E.F.G.H.I.J.d.g.v.K.L.MQtQtQt",
"QtQt.j.y.N.O.P.Q.R.S.T.U.H.I.J.d.g.v.K.V.W.XQtQt",
"QtQt.j.y.N.O.P.Q.R.S.T.U.H.I.J.d.g.v.K.V.Y.Z.0Qt",
"QtQt.j.y.N.O.P.Q.R.S.T.U.H.I.J.d.g.v.K.V.Y.1.0Qt",
"QtQt.j.y.N.O.P.Q.R.S.T.U.H.I.J.d.g.v.K.V.2.XQtQt",
"QtQt.j.y.3.4.5.6.7.8.9#.###a#b.d.g.v.K#c.MQtQtQt",
"QtQt.j#d#e#f#g#h#i#j#k#l#m#n.#.d.g.v#o.xQtQtQtQt",
"QtQtQtQtQtQtQtQtQtQtQtQtQtQt.#.d.g#p.iQtQtQtQtQt",
"QtQtQtQtQtQtQtQtQtQtQtQtQtQt.#.d#q.fQtQtQtQtQtQt",
"QtQtQtQtQtQtQtQtQtQtQtQtQtQt.##r.cQtQtQtQtQtQtQt",
"QtQtQtQtQtQtQtQtQtQtQtQtQtQt.#.aQtQtQtQtQtQtQtQt",
"QtQtQtQtQtQtQtQtQtQtQtQtQtQt#s#tQtQtQtQtQtQtQtQt",
"QtQtQtQtQtQtQtQtQtQtQtQtQtQtQtQtQtQtQtQtQtQtQtQt",
"QtQtQtQtQtQtQtQtQtQtQtQtQtQtQtQtQtQtQtQtQtQtQtQt",
"QtQtQtQtQtQtQtQtQtQtQtQtQtQtQtQtQtQtQtQtQtQtQtQt"};
