/* XPM */
static char *dummy[]={
"24 24 62 1",
". c None",
"d c #000080",
"o c #585858",
"a c #898b86",
"6 c #d1d2d0",
"7 c #d3d4d2",
"# c #dadbd9",
"Q c #e5e5e6",
"Z c #e6e6e6",
"T c #e7e8e7",
"X c #e7e8e8",
"W c #e8e7e7",
"V c #e8e7e8",
"U c #e8e8e7",
"P c #e9e9e9",
"L c #eae9e9",
"M c #ebeaeb",
"K c #ebebeb",
"G c #ecedec",
"H c #eceded",
"I c #ededed",
"N c #eeeeef",
"E c #eeefef",
"C c #efeeef",
"D c #efefef",
"2 c #efeff0",
"4 c #eff0ef",
"1 c #f0efef",
"5 c #f0eff0",
"3 c #f0f0ef",
"A c #f0f0f0",
"B c #f0f1f0",
"0 c #f1f0f1",
"S c #f1f1f1",
"Y c #f2f1f2",
"x c #f2f2f2",
"R c #f2f3f3",
"O c #f3f2f3",
"J c #f3f3f3",
"v c #f3f4f4",
"s c #f4f3f4",
"t c #f4f4f3",
"u c #f4f4f4",
"F c #f5f4f5",
"e c #f5f5f5",
"m c #f5f6f5",
"p c #f6f5f5",
"n c #f6f6f5",
"q c #f6f6f6",
"z c #f6f7f6",
"g c #f7f7f7",
"k c #f7f7f8",
"j c #f8f7f7",
"w c #f8f8f7",
"y c #f8f8f8",
"r c #f9f9f9",
"l c #fafafa",
"i c #fbfcfc",
"h c #fcfcfc",
"f c #fefdfd",
"c c #fefeff",
"b c #ffffff",
"........................",
".#aaaaaaaaaaaaaaaaaaaa#.",
".abbbbbbbbbbbbbbbbbbbba.",
".acddddddddddddddddddea.",
".afddddddddddddddddddea.",
".afggggggggggggggggggfa.",
".affffffffffffffffffffa.",
".ahgggggggggggggffgggea.",
".aijggggggggggggffggkea.",
".almmnnnnongggopffenqea.",
".argsstgoottguooffvvgea.",
".awggxxoooxxxxoooxxggya.",
".azgggooooAABAoooogggga.",
".amggoooooCDEgoooooggqa.",
".aFgggooooGHIgoooogggea.",
".aJggKKoooLMKKoooNKggsa.",
".aLgLLLLooLLLLooLLLggLa.",
".aLLLLLLLoLggLoLLLLLLLa.",
".aOPPLLQQLPgggPPQQPLPRa.",
".aSTUVVQQggggggWQQUXXYa.",
".aAZQQQQQgggggggQQZQZ0a.",
".aDDDD1QQ2DD2D34QQ51ADa.",
".6aaaaaaaaaaaaaaaaaaaa7.",
"........................"};
