/* XPM */
static char *dummy[]={
"24 24 61 1",
". c None",
"d c #000080",
"i c #585858",
"a c #898b86",
"5 c #d1d2d0",
"6 c #d3d4d2",
"# c #dadbd9",
"P c #e5e5e6",
"Y c #e6e6e6",
"S c #e7e8e7",
"W c #e7e8e8",
"V c #e8e7e7",
"U c #e8e7e8",
"T c #e8e8e7",
"O c #e9e9e9",
"K c #eae9e9",
"L c #ebeaeb",
"J c #ebebeb",
"F c #ecedec",
"G c #eceded",
"H c #ededed",
"M c #eeeeef",
"D c #eeefef",
"B c #efeeef",
"C c #efefef",
"1 c #efeff0",
"3 c #eff0ef",
"0 c #f0efef",
"4 c #f0eff0",
"2 c #f0f0ef",
"z c #f0f0f0",
"A c #f0f1f0",
"Z c #f1f0f1",
"R c #f1f1f1",
"X c #f2f1f2",
"w c #f2f2f2",
"Q c #f2f3f3",
"N c #f3f2f3",
"I c #f3f3f3",
"u c #f3f4f4",
"s c #f4f3f4",
"t c #f4f4f3",
"E c #f5f4f5",
"e c #f5f5f5",
"n c #f5f6f5",
"p c #f6f5f5",
"o c #f6f6f5",
"q c #f6f6f6",
"y c #f6f7f6",
"g c #f7f7f7",
"l c #f7f7f8",
"k c #f8f7f7",
"v c #f8f8f7",
"x c #f8f8f8",
"r c #f9f9f9",
"m c #fafafa",
"j c #fbfcfc",
"h c #fcfcfc",
"f c #fefdfd",
"c c #fefeff",
"b c #ffffff",
"........................",
".#aaaaaaaaaaaaaaaaaaaa#.",
".abbbbbbbbbbbbbbbbbbbba.",
".acddddddddddddddddddea.",
".afddddddddddddddddddea.",
".afggggggggggggggggggfa.",
".affffffffffffffffffffa.",
".ahggggggggiggggffgggea.",
".ajkggggggiiigggffgglea.",
".amgnooooiiiiigpffeoqea.",
".argsstgiiiiiiigffuugea.",
".avggwwiiiiiiiiigwwggxa.",
".aygggggggzzAzgggggggga.",
".angggggggBCDggggggggqa.",
".aEgggggggFGHggggggggea.",
".aIggJJgggKLJJgggMJggsa.",
".aKgKKKiiiiiiiiiKKKggKa.",
".aKKKKKKiiiiiiiKKKKKKKa.",
".aNOOKKPPiiiiiOOPPOKOQa.",
".aRSTUUPPgiiiggVPPTWWXa.",
".azYPPPPPggiggggPPYPYZa.",
".aCCCC0PP1CC1C23PP40zCa.",
".5aaaaaaaaaaaaaaaaaaaa6.",
"........................"};
