/* XPM */
static char *dummy[]={
"24 24 66 2",
"Qt c None",
".d c #000080",
".i c #585858",
".a c #898b86",
"#. c #d1d2d0",
"## c #d3d4d2",
".# c #dadbd9",
".U c #e5e5e6",
".3 c #e6e6e6",
".X c #e7e8e7",
".1 c #e7e8e8",
".0 c #e8e7e7",
".Z c #e8e7e8",
".Y c #e8e8e7",
".T c #e9e9e9",
".Q c #eae9e9",
".R c #ebeaeb",
".P c #ebebeb",
".K c #ecedec",
".L c #eceded",
".N c #edecec",
".M c #edeced",
".J c #ededed",
".E c #eeeeef",
".H c #eeefef",
".F c #efeeef",
".G c #efefef",
".6 c #efeff0",
".8 c #eff0ef",
".5 c #f0efef",
".9 c #f0eff0",
".7 c #f0f0ef",
".B c #f0f0f0",
".C c #f0f1f0",
".A c #f0f1f1",
".D c #f1f0f0",
".4 c #f1f0f1",
".W c #f1f1f1",
".2 c #f2f1f2",
".x c #f2f2f2",
".V c #f2f3f3",
".S c #f3f2f3",
".O c #f3f3f3",
".v c #f3f4f4",
".s c #f4f3f4",
".t c #f4f4f3",
".u c #f4f4f4",
".I c #f5f4f5",
".e c #f5f5f5",
".n c #f5f6f5",
".p c #f6f5f5",
".o c #f6f6f5",
".q c #f6f6f6",
".z c #f6f7f6",
".g c #f7f7f7",
".l c #f7f7f8",
".k c #f8f7f7",
".w c #f8f8f7",
".y c #f8f8f8",
".r c #f9f9f9",
".m c #fafafa",
".j c #fbfcfc",
".h c #fcfcfc",
".f c #fefdfd",
".c c #fefeff",
".b c #ffffff",
"QtQtQtQtQtQtQtQtQtQtQtQtQtQtQtQtQtQtQtQtQtQtQtQt",
"Qt.#.a.a.a.a.a.a.a.a.a.a.a.a.a.a.a.a.a.a.a.a.#Qt",
"Qt.a.b.b.b.b.b.b.b.b.b.b.b.b.b.b.b.b.b.b.b.b.aQt",
"Qt.a.c.d.d.d.d.d.d.d.d.d.d.d.d.d.d.d.d.d.d.e.aQt",
"Qt.a.f.d.d.d.d.d.d.d.d.d.d.d.d.d.d.d.d.d.d.e.aQt",
"Qt.a.f.g.g.g.g.g.g.g.g.g.g.g.g.g.g.g.g.g.g.f.aQt",
"Qt.a.f.f.f.f.f.f.f.f.f.f.f.f.f.f.f.f.f.f.f.f.aQt",
"Qt.a.h.g.g.g.g.g.g.i.i.i.i.i.i.i.f.f.g.g.g.e.aQt",
"Qt.a.j.k.g.g.g.g.g.g.i.i.i.i.i.g.f.f.g.g.l.e.aQt",
"Qt.a.m.n.n.o.o.o.o.o.o.i.i.i.p.p.f.f.e.o.q.e.aQt",
"Qt.a.r.i.s.s.t.o.o.t.t.t.i.u.u.u.f.f.v.v.i.e.aQt",
"Qt.a.w.i.i.x.x.x.x.x.x.x.x.x.x.x.x.x.x.i.i.y.aQt",
"Qt.a.z.i.i.i.A.x.x.A.B.B.C.B.D.D.x.x.i.i.i.g.aQt",
"Qt.a.n.i.i.i.i.E.E.E.F.G.H.E.F.F.x.i.i.i.i.q.aQt",
"Qt.a.I.i.i.i.J.E.E.J.K.L.J.M.N.N.E.E.i.i.i.e.aQt",
"Qt.a.O.i.i.P.P.E.Q.Q.Q.R.P.P.P.P.E.E.P.i.i.s.aQt",
"Qt.a.Q.i.Q.Q.Q.Q.Q.Q.Q.Q.Q.Q.Q.Q.Q.Q.Q.Q.i.Q.aQt",
"Qt.a.Q.Q.Q.Q.Q.Q.Q.Q.Q.Q.i.Q.Q.Q.Q.Q.Q.Q.Q.Q.aQt",
"Qt.a.S.T.T.Q.Q.U.U.Q.T.i.i.i.T.T.U.U.T.Q.T.V.aQt",
"Qt.a.W.X.Y.Z.Z.U.U.Z.i.i.i.i.i.0.U.U.Y.1.1.2.aQt",
"Qt.a.B.3.U.U.U.U.U.i.i.i.i.i.i.i.U.U.3.U.3.4.aQt",
"Qt.a.G.G.G.G.5.U.U.6.G.G.6.G.7.8.U.U.9.5.B.G.aQt",
"Qt#..a.a.a.a.a.a.a.a.a.a.a.a.a.a.a.a.a.a.a.a##Qt",
"QtQtQtQtQtQtQtQtQtQtQtQtQtQtQtQtQtQtQtQtQtQtQtQt"};
