/* XPM */
static char *dummy[]={
"24 24 198 2",
".I c #000000",
"## c #020202",
".J c #040404",
"#a c #060606",
"#D c #080a0a",
"#J c #0e0e0e",
"ap c #121214",
"#k c #161616",
"bb c #16181a",
"#C c #181818",
"b. c #181a1a",
"a1 c #181a1c",
"#8 c #1c1e1e",
".H c #1e1e1e",
"aZ c #1e2022",
"#Z c #202020",
"#v c #202022",
"aQ c #242628",
"ay c #24282a",
".K c #262626",
"as c #262a2c",
".1 c #282828",
"aO c #282a2a",
"aA c #2a2c2e",
"a7 c #2a2e30",
"a# c #2c3234",
"aP c #2e3032",
"#9 c #2e3438",
"ba c #303234",
"aH c #323434",
"b# c #323436",
"#2 c #32383a",
"#j c #343434",
"aI c #36383a",
"#q c #383838",
"aq c #383c3e",
"aD c #3e3e3e",
"a9 c #3e4040",
"#0 c #404648",
"#c c #424242",
".U c #424244",
"ag c #424446",
"#x c #42484c",
"av c #444244",
"#t c #444c4e",
"#o c #464e50",
"bd c #484a4c",
"a8 c #4a4c4c",
"#T c #4a5052",
"#F c #4a5054",
"#I c #4c4c4c",
".G c #4e4e4e",
"ai c #4e5254",
"#e c #4e5456",
"aG c #505254",
".9 c #505658",
"az c #525456",
"ax c #52585a",
"#V c #545a5c",
".L c #565656",
"#r c #56585a",
"ac c #585858",
".6 c #585e62",
".3 c #5a5a5a",
"aY c #5a5e60",
".Z c #5c6264",
"am c #5e5e5e",
"#m c #5e6468",
".r c #60666a",
".P c #62686a",
"#R c #646464",
".j c #656b6f",
".T c #666668",
".C c #666a6e",
".Q c #666c70",
".k c #676d71",
"#L c #686e70",
".B c #6a6e72",
"#g c #6a7072",
"a2 c #6c6e72",
"#G c #6c7274",
"a6 c #6c7276",
"ad c #727272",
"#U c #727678",
".4 c #747678",
".R c #747a7c",
"aR c #76787a",
"a5 c #767c80",
"aF c #787676",
".7 c #787c7e",
"#z c #787c80",
"#d c #7a7c7e",
".Y c #7a7e82",
"a4 c #7c8084",
"#S c #7e8286",
".n c #7e8486",
"#h c #808080",
".i c #818689",
".q c #82888a",
"#K c #84888a",
"#. c #868686",
".s c #868c8e",
"ao c #888888",
"a3 c #888c8e",
".d c #8b8f92",
".2 c #8c8c8c",
".M c #8e8e90",
".m c #8e9295",
"#E c #8e9296",
".l c #8f9396",
"aw c #909092",
"at c #909296",
"#w c #92969a",
".c c #979b9d",
"a. c #989c9c",
"aC c #9a9a9a",
"aJ c #9a9c9e",
".V c #9c9c9e",
"aa c #9ea0a2",
"aS c #9ea2a6",
"bc c #a0a0a0",
"#l c #a0a0a4",
"#1 c #a0a4a4",
".F c #a2a2a2",
"#y c #a4a6a8",
"aX c #a6a8a8",
"aT c #a8aaac",
"#Q c #aaaaaa",
"ar c #aaacac",
".5 c #aaacb0",
".O c #aaaeb0",
"aU c #acaeae",
"aK c #aeb0b2",
"#Y c #b0aeb0",
"#p c #b4b4b4",
".W c #b4b6b8",
"#f c #b6b8ba",
"#i c #b8b8b8",
".z c #babcc0",
"aE c #bcbcbc",
".8 c #bcbec0",
"#P c #bebebc",
"aW c #bec0c0",
".e c #bec0c2",
".b c #bec1c2",
"aB c #c0c0c2",
".o c #c4c6c8",
".h c #c5c7c8",
".0 c #c6c6c6",
".D c #c6c8ca",
"aj c #c6c8cc",
".N c #c8cacc",
"aV c #cacaca",
"ah c #cacacc",
"#B c #cccaca",
".t c #ccced0",
"au c #ced0d2",
"#b c #d0d0d0",
"a0 c #d0d0d2",
"#O c #d2d2d0",
"aN c #d2d2d2",
"#s c #d2d2d4",
"aM c #d4d4d4",
"an c #d4d4d6",
"#3 c #d4d6d8",
"ae c #d6d6d4",
"af c #d6d6d6",
"#n c #d6d8d8",
"#7 c #d8d8d8",
"aL c #d8d8da",
"#6 c #dcdcdc",
".S c #dcdcde",
"al c #dedede",
".f c #dedfe0",
".a c #dfe0e1",
"#5 c #e0e0e0",
".A c #e2e2e2",
".X c #e2e2e4",
".y c #e2e4e6",
"#X c #e6e6e6",
"ab c #e6e6e8",
".p c #e6e8e8",
"ak c #e8e8e8",
"#W c #eaeaea",
".E c #ececec",
"#M c #ececee",
"#4 c #eeeeee",
".x c #eeeef0",
"#u c #f0f0f0",
"#H c #f0f0f2",
".w c #f2f2f2",
"#N c #f4f4f4",
"#A c #f6f6f6",
".u c #f8f8f8",
".# c #fafafa",
".v c #fcfcfc",
".g c #fefefe",
"Qt c #ffffff",
"QtQtQtQtQtQtQt.#.a.b.c.d.d.c.e.f.#QtQtQtQtQtQtQt",
"QtQtQtQtQt.g.h.i.j.k.i.l.m.n.k.j.i.o.gQtQtQtQtQt",
"QtQtQtQt.p.q.r.s.t.u.v.u.w.x.y.z.n.r.q.pQtQtQtQt",
"QtQtQt.A.B.C.D.E.F.G.H.I.J.K.L.M.N.O.P.B.aQtQtQt",
"QtQt.p.Q.R.S.#.T.I.J.I.I.I.J.J.J.U.V.W.B.Q.XQtQt",
"Qt.g.Y.Z.f.#.0.I.J.I.1.2.3.J.J.J.J.1.4.5.6.7.gQt",
"Qt.8.9.b.#.##..I###a#bQtQt#c.I.J.J.J#a#d.m#e#fQt",
".u#g.R.u.uQt#h.I.J.J#iQt.##j.I.J.J.J.J#k#l#m.B.u",
"#n#o.e.#QtQt#p.I.J###k.3#q##.J.J.J.J.J.J#r.i#o#s",
".O#t#u.uQtQt.w#j.I.J.I.I.I.J.J.J.J.J.J.J#v#w#x#y",
"#z#m#A.#QtQt.g#B#C.I.I##.J.J.J.J.J.J.J.J#D#E#F#z",
".C#G#HQtQt.g.#.u.0#I#J.J.I.I.I.J.J.J.J.J###K#e.C",
".P#L#MQt.g.v.#.u#N#u#O#P#Q#R#J.I.J.J.J.J.J#S#T.P",
"#U#V.p.#.v.##A#N#u#M#W#X.A.f#Y#Z.I.J.J.J#D#S#0#U",
"#1#2#3.w.#.u#A.w#4#W.p.X#5#6#7#p#J##.J.J#8.R#9a.",
"#ba#aaab.u#A.w#4.E.p.0acadae#nafac.I.J.Jag.Za#ah",
".uai.9aj.x.w#u.Eakal#k.I.Iaman#sao.I.Jap#gaqai#A",
"Qtarasatau#4.E#W#Xaf.I.I.Iav#s#baw.I#Daiaxay#yQt",
"Qt.gazaA#yaB#B#X.A.faC#vaDaE#O#baF#aag#mayaG.vQt",
"QtQt#6aHaIaJaK#i.f#6aLafaMaNaN.0aO#T.ZaAaH#7QtQt",
"QtQtQtaMaPaQaRaSaTaU#paVaVaWaXaY.Q#eaZaPa0QtQtQt",
"QtQtQtQtaL#Ia1aIa2a3.sa4#za5a6axa7a1a8#nQtQtQtQt",
"QtQtQtQtQt.v.Fa9b.b.aAb#baaybbb.a9bc.vQtQtQtQtQt",
"QtQtQtQtQtQtQt#A.0awambdbdam.M.0#AQtQtQtQtQtQtQt"};
